ply
format ascii 1.0
element vertex 377
property float x
property float y
property float z
property uchar red
property uchar green
property uchar blue
element face 0
end_header
0.5  -1.44  1.475 0  0  0
0.15000000000000036  -1.32  0.8 0  0  0
0.30000000000000027  -1.5  0.8 0  0  0
0.30000000000000027  -1.5  0.55 0  0  0
0.40000000000000036  -1.5  0.6000000000000001 0  0  0
0.40000000000000036  -1.5  0.8500000000000001 0  0  0
0.050000000000000266  -1.2000000000000002  1.4500000000000002 0  0  0
0.15000000000000036  -1.32  1.35 0  0  0
0.15000000000000036  -1.32  1.6 0  0  0
0.4500000000000002  -1.2000000000000002  0.1 0  0  0
0.10000000000000009  -1.5  1.2000000000000002 0  0  0
0.0  -1.3800000000000001  1.0 0  0  0
0.20000000000000018  -1.5  0.6000000000000001 0  0  0
0.30000000000000027  -1.26  1.25 0  0  0
0.15000000000000036  -1.56  0.5 0  0  0
0.15000000000000036  -1.56  0.25 0  0  0
0.4500000000000002  -1.32  0.55 0  0  0
0.4500000000000002  -1.32  0.30000000000000004 0  0  0
0.15000000000000036  -1.56  1.05 0  0  0
0.4500000000000002  -1.32  0.8 0  0  0
0.20000000000000018  -1.26  0.75 0  0  0
0.30000000000000027  -1.62  1.1 0  0  0
0.20000000000000018  -1.26  1.3 0  0  0
0.3500000000000001  -1.44  1.3 0  0  0
0.3500000000000001  -1.44  1.05 0  0  0
0.20000000000000018  -1.62  0.8500000000000001 0  0  0
0.40000000000000036  -1.2000000000000002  0.47500000000000003 0  0  0
0.25  -1.32  0.55 0  0  0
0.3500000000000001  -1.32  0.8500000000000001 0  0  0
0.5  -1.3800000000000001  1.4000000000000001 0  0  0
0.40000000000000036  -1.3800000000000001  0.9 0  0  0
0.25  -1.32  1.1 0  0  0
0.25  -1.56  0.35000000000000003 0  0  0
0.20000000000000018  -1.3800000000000001  1.05 0  0  0
0.20000000000000018  -1.3800000000000001  1.55 0  0  0
0.3500000000000001  -1.56  1.05 0  0  0
0.40000000000000036  -1.32  0.8250000000000001 0  0  0
0.10000000000000009  -1.3800000000000001  1.55 0  0  0
0.10000000000000009  -1.3800000000000001  1.3 0  0  0
0.10000000000000009  -1.3800000000000001  1.05 0  0  0
0.050000000000000266  -1.44  0.65 0  0  0
0.40000000000000036  -1.26  0.0 0  0  0
0.40000000000000036  -1.26  0.75 0  0  0
0.050000000000000266  -1.44  1.2000000000000002 0  0  0
-0.04999999999999982  -1.32  0.9500000000000001 0  0  0
0.25  -1.44  0.45 0  0  0
0.3500000000000001  -1.2000000000000002  0.15000000000000002 0  0  0
0.10000000000000009  -1.5  0.7000000000000001 0  0  0
0.10000000000000009  -1.44  0.625 0  0  0
0.30000000000000027  -1.26  0.75 0  0  0
0.30000000000000027  -1.26  0.5 0  0  0
0.4500000000000002  -1.44  0.75 0  0  0
0.4500000000000002  -1.44  0.5 0  0  0
0.0  -1.32  0.925 0  0  0
0.10000000000000009  -1.26  1.4000000000000001 0  0  0
0.10000000000000009  -1.26  1.1500000000000001 0  0  0
0.25  -1.44  1.4000000000000001 0  0  0
0.20000000000000018  -1.26  0.8 0  0  0
0.15000000000000036  -1.56  0.45 0  0  0
0.15000000000000036  -1.56  0.2 0  0  0
0.30000000000000027  -1.5  1.2000000000000002 0  0  0
0.30000000000000027  -1.3800000000000001  1.05 0  0  0
0.050000000000000266  -1.32  1.0 0  0  0
0.050000000000000266  -1.32  1.5 0  0  0
0.20000000000000018  -1.5  1.25 0  0  0
0.050000000000000266  -1.32  1.25 0  0  0
0.3500000000000001  -1.44  0.45 0  0  0
0.40000000000000036  -1.26  0.1 0  0  0
0.20000000000000018  -1.3800000000000001  0.55 0  0  0
0.4500000000000002  -1.2000000000000002  0.05 0  0  0
0.40000000000000036  -1.3800000000000001  0.35000000000000003 0  0  0
0.20000000000000018  -1.62  1.0 0  0  0
0.25  -1.56  0.55 0  0  0
0.25  -1.56  0.30000000000000004 0  0  0
0.3500000000000001  -1.32  1.25 0  0  0
0.4500000000000002  -1.2000000000000002  0.15000000000000002 0  0  0
0.10000000000000009  -1.2000000000000002  1.5750000000000002 0  0  0
0.40000000000000036  -1.26  0.45 0  0  0
0.5  -1.44  1.375 0  0  0
0.25  -1.44  0.4 0  0  0
0.050000000000000266  -1.44  1.05 0  0  0
0.40000000000000036  -1.44  1.425 0  0  0
0.30000000000000027  -1.26  0.45 0  0  0
0.15000000000000036  -1.32  0.7000000000000001 0  0  0
0.30000000000000027  -1.5  0.7000000000000001 0  0  0
0.4500000000000002  -1.44  0.45 0  0  0
0.20000000000000018  -1.2000000000000002  1.5750000000000002 0  0  0
0.10000000000000009  -1.5  1.1 0  0  0
0.40000000000000036  -1.1400000000000001  0.05 0  0  0
0.30000000000000027  -1.3800000000000001  0.45 0  0  0
0.30000000000000027  -1.62  1.0 0  0  0
0.30000000000000027  -1.62  0.9500000000000001 0  0  0
0.15000000000000036  -1.56  0.9 0  0  0
0.30000000000000027  -1.26  1.4000000000000001 0  0  0
0.15000000000000036  -1.56  0.4 0  0  0
0.15000000000000036  -1.56  0.15000000000000002 0  0  0
0.4500000000000002  -1.32  0.7000000000000001 0  0  0
0.3500000000000001  -1.44  0.4 0  0  0
0.20000000000000018  -1.62  0.5 0  0  0
0.15000000000000036  -1.56  1.2000000000000002 0  0  0
0.20000000000000018  -1.62  0.25 0  0  0
0.30000000000000027  -1.56  1.175 0  0  0
0.5  -1.5  1.4500000000000002 0  0  0
0.20000000000000018  -1.26  1.4500000000000002 0  0  0
0.20000000000000018  -1.26  1.2000000000000002 0  0  0
0.10000000000000009  -1.1400000000000001  1.5 0  0  0
0.3500000000000001  -1.44  1.2000000000000002 0  0  0
0.25  -1.32  1.5 0  0  0
0.25  -1.32  0.9500000000000001 0  0  0
0.40000000000000036  -1.3800000000000001  0.30000000000000004 0  0  0
0.8000000000000003  -1.56  1.5250000000000001 0  0  0
0.20000000000000018  -1.56  1.225 0  0  0
0.15000000000000036  -1.44  0.75 0  0  0
0.15000000000000036  -1.44  0.5 0  0  0
0.15000000000000036  -1.44  1.3 0  0  0
0.8500000000000001  -1.56  1.55 0  0  0
0.10000000000000009  -1.3800000000000001  1.4500000000000002 0  0  0
0.25  -1.56  1.2000000000000002 0  0  0
0.75  -1.56  1.55 0  0  0
0.050000000000000266  -1.44  1.1 0  0  0
0.40000000000000036  -1.26  0.65 0  0  0
0.40000000000000036  -1.26  0.4 0  0  0
0.40000000000000036  -1.26  0.15000000000000002 0  0  0
0.30000000000000027  -1.32  0.9750000000000001 0  0  0
0.20000000000000018  -1.44  1.3250000000000002 0  0  0
0.20000000000000018  -1.1400000000000001  1.55 0  0  0
0.30000000000000027  -1.26  0.9 0  0  0
0.30000000000000027  -1.26  0.65 0  0  0
0.4500000000000002  -1.44  0.9 0  0  0
0.4500000000000002  -1.44  0.65 0  0  0
0.4500000000000002  -1.44  0.4 0  0  0
0.10000000000000009  -1.26  1.3 0  0  0
0.30000000000000027  -1.26  1.2000000000000002 0  0  0
0.6000000000000001  -1.44  1.425 0  0  0
0.20000000000000018  -1.26  0.7000000000000001 0  0  0
0.30000000000000027  -1.5  1.35 0  0  0
0.40000000000000036  -1.5  1.4000000000000001 0  0  0
0.15000000000000036  -1.56  0.35000000000000003 0  0  0
0.15000000000000036  -1.2000000000000002  1.4500000000000002 0  0  0
0.20000000000000018  -1.62  0.45 0  0  0
0.20000000000000018  -1.62  0.2 0  0  0
0.050000000000000266  -1.32  1.4000000000000001 0  0  0
0.050000000000000266  -1.32  1.1500000000000001 0  0  0
0.20000000000000018  -1.3800000000000001  0.9500000000000001 0  0  0
0.40000000000000036  -1.2000000000000002  0.5750000000000001 0  0  0
0.3500000000000001  -1.56  0.9500000000000001 0  0  0
0.40000000000000036  -1.1400000000000001  0.5 0  0  0
0.40000000000000036  -1.1400000000000001  0.0 0  0  0
0.15000000000000036  -1.44  0.8 0  0  0
0.15000000000000036  -1.44  0.55 0  0  0
0.10000000000000009  -1.32  1.375 0  0  0
0.10000000000000009  -1.32  1.625 0  0  0
0.10000000000000009  -1.3800000000000001  0.7000000000000001 0  0  0
0.20000000000000018  -1.62  1.1500000000000001 0  0  0
0.4500000000000002  -1.2000000000000002  0.55 0  0  0
0.15000000000000036  -1.44  0.45 0  0  0
0.3500000000000001  -1.32  1.4000000000000001 0  0  0
0.40000000000000036  -1.26  0.35000000000000003 0  0  0
0.050000000000000266  -1.2000000000000002  1.5 0  0  0
0.40000000000000036  -1.1400000000000001  0.1 0  0  0
0.15000000000000036  -1.32  0.8500000000000001 0  0  0
0.30000000000000027  -1.5  0.6000000000000001 0  0  0
0.30000000000000027  -1.5  0.8500000000000001 0  0  0
0.20000000000000018  -1.2000000000000002  1.475 0  0  0
-0.04999999999999982  -1.32  1.0 0  0  0
0.10000000000000009  -1.5  1.25 0  0  0
0.30000000000000027  -1.26  1.3 0  0  0
0.15000000000000036  -1.56  0.55 0  0  0
0.15000000000000036  -1.56  0.30000000000000004 0  0  0
0.4500000000000002  -1.32  0.6000000000000001 0  0  0
0.15000000000000036  -1.56  1.1 0  0  0
0.30000000000000027  -1.62  1.1500000000000001 0  0  0
0.20000000000000018  -1.62  0.9 0  0  0
0.20000000000000018  -1.62  0.4 0  0  0
0.20000000000000018  -1.26  1.35 0  0  0
0.20000000000000018  -1.26  1.1 0  0  0
0.3500000000000001  -1.44  1.35 0  0  0
0.20000000000000018  -1.62  0.15000000000000002 0  0  0
0.3500000000000001  -1.44  1.1 0  0  0
0.3500000000000001  -1.32  0.4 0  0  0
0.3500000000000001  -1.32  0.9 0  0  0
0.25  -1.32  0.6000000000000001 0  0  0
0.20000000000000018  -1.62  1.2000000000000002 0  0  0
0.5  -1.3800000000000001  1.4500000000000002 0  0  0
0.20000000000000018  -1.56  0.5750000000000001 0  0  0
0.20000000000000018  -1.56  0.8250000000000001 0  0  0
0.40000000000000036  -1.3800000000000001  0.9500000000000001 0  0  0
0.25  -1.32  1.1500000000000001 0  0  0
0.30000000000000027  -1.44  0.47500000000000003 0  0  0
0.20000000000000018  -1.3800000000000001  1.35 0  0  0
0.3500000000000001  -1.56  1.1 0  0  0
0.15000000000000036  -1.44  0.9 0  0  0
0.15000000000000036  -1.44  0.4 0  0  0
0.10000000000000009  -1.3800000000000001  1.6 0  0  0
0.30000000000000027  -1.44  1.425 0  0  0
0.050000000000000266  -1.44  0.7000000000000001 0  0  0
0.40000000000000036  -1.26  0.30000000000000004 0  0  0
0.40000000000000036  -1.26  0.8 0  0  0
0.6000000000000001  -1.3800000000000001  1.4500000000000002 0  0  0
0.30000000000000027  -1.26  0.8 0  0  0
0.30000000000000027  -1.26  0.55 0  0  0
0.4500000000000002  -1.44  0.8 0  0  0
0.4500000000000002  -1.44  0.55 0  0  0
0.25  -1.2000000000000002  1.5 0  0  0
0.40000000000000036  -1.5  0.75 0  0  0
0.40000000000000036  -1.5  0.5 0  0  0
0.30000000000000027  -1.5  1.25 0  0  0
0.10000000000000009  -1.26  1.2000000000000002 0  0  0
0.0  -1.32  1.0250000000000001 0  0  0
0.20000000000000018  -1.26  0.8500000000000001 0  0  0
0.20000000000000018  -1.5  0.25 0  0  0
0.20000000000000018  -1.5  0.75 0  0  0
0.30000000000000027  -1.3800000000000001  1.1 0  0  0
0.050000000000000266  -1.32  1.55 0  0  0
0.050000000000000266  -1.32  1.3 0  0  0
0.20000000000000018  -1.5  1.3 0  0  0
0.20000000000000018  -1.62  0.35000000000000003 0  0  0
0.3500000000000001  -1.32  0.35000000000000003 0  0  0
0.20000000000000018  -1.3800000000000001  0.6000000000000001 0  0  0
0.20000000000000018  -1.3800000000000001  1.4000000000000001 0  0  0
0.15000000000000036  -1.44  0.9500000000000001 0  0  0
0.40000000000000036  -1.1400000000000001  0.15000000000000002 0  0  0
0.20000000000000018  -1.62  1.05 0  0  0
0.25  -1.56  0.8500000000000001 0  0  0
0.3500000000000001  -1.32  1.3 0  0  0
0.15000000000000036  -1.32  0.75 0  0  0
0.30000000000000027  -1.5  0.75 0  0  0
0.30000000000000027  -1.5  0.5 0  0  0
0.40000000000000036  -1.5  0.8 0  0  0
0.40000000000000036  -1.5  0.55 0  0  0
0.0  -1.26  0.9500000000000001 0  0  0
0.40000000000000036  -1.5  0.45 0  0  0
0.10000000000000009  -1.5  1.1500000000000001 0  0  0
0.20000000000000018  -1.32  1.075 0  0  0
0.4500000000000002  -1.32  0.75 0  0  0
0.15000000000000036  -1.56  1.0 0  0  0
0.4500000000000002  -1.32  0.5 0  0  0
0.15000000000000036  -1.56  0.9500000000000001 0  0  0
0.30000000000000027  -1.62  1.05 0  0  0
0.20000000000000018  -1.5  0.2 0  0  0
0.4500000000000002  -1.44  1.4500000000000002 0  0  0
0.20000000000000018  -1.32  1.5750000000000002 0  0  0
0.20000000000000018  -1.26  1.25 0  0  0
0.3500000000000001  -1.44  1.25 0  0  0
0.3500000000000001  -1.44  1.0 0  0  0
0.20000000000000018  -1.62  0.55 0  0  0
0.20000000000000018  -1.62  0.30000000000000004 0  0  0
0.25  -1.32  0.5 0  0  0
0.3500000000000001  -1.32  0.30000000000000004 0  0  0
0.10000000000000009  -1.1400000000000001  1.55 0  0  0
0.25  -1.32  1.55 0  0  0
0.40000000000000036  -1.3800000000000001  0.8500000000000001 0  0  0
0.8000000000000003  -1.56  1.5750000000000002 0  0  0
0.20000000000000018  -1.3800000000000001  1.0 0  0  0
0.20000000000000018  -1.3800000000000001  1.5 0  0  0
0.3500000000000001  -1.56  1.0 0  0  0
0.40000000000000036  -1.3800000000000001  1.4000000000000001 0  0  0
0.40000000000000036  -1.32  0.275 0  0  0
0.10000000000000009  -1.3800000000000001  1.5 0  0  0
0.40000000000000036  -1.44  0.9750000000000001 0  0  0
0.6500000000000004  -1.44  1.4500000000000002 0  0  0
0.050000000000000266  -1.44  1.1500000000000001 0  0  0
0.8000000000000003  -1.5  1.55 0  0  0
0.10000000000000009  -1.5  0.65 0  0  0
0.40000000000000036  -1.26  0.7000000000000001 0  0  0
0.0  -1.3800000000000001  0.9500000000000001 0  0  0
0.30000000000000027  -1.26  0.9500000000000001 0  0  0
0.30000000000000027  -1.26  0.7000000000000001 0  0  0
0.4500000000000002  -1.44  0.7000000000000001 0  0  0
0.4500000000000002  -1.44  0.9500000000000001 0  0  0
0.10000000000000009  -1.26  1.1 0  0  0
0.10000000000000009  -1.26  1.6 0  0  0
0.25  -1.44  1.35 0  0  0
0.40000000000000036  -1.5  0.9 0  0  0
0.40000000000000036  -1.5  0.65 0  0  0
0.40000000000000036  -1.5  0.4 0  0  0
0.6000000000000001  -1.44  1.475 0  0  0
0.30000000000000027  -1.5  1.4000000000000001 0  0  0
0.30000000000000027  -1.3800000000000001  1.0 0  0  0
0.4500000000000002  -1.32  0.45 0  0  0
0.20000000000000018  -1.5  0.15000000000000002 0  0  0
0.20000000000000018  -1.5  0.65 0  0  0
0.20000000000000018  -1.3800000000000001  0.5 0  0  0
0.050000000000000266  -1.32  1.2000000000000002 0  0  0
0.050000000000000266  -1.32  1.4500000000000002 0  0  0
0.25  -1.32  0.45 0  0  0
0.15000000000000036  -1.44  0.8500000000000001 0  0  0
0.40000000000000036  -1.1400000000000001  0.55 0  0  0
0.25  -1.56  0.5 0  0  0
0.25  -1.56  0.25 0  0  0
0.15000000000000036  -1.44  0.6000000000000001 0  0  0
0.3500000000000001  -1.2000000000000002  0.05 0  0  0
0.8000000000000003  -1.62  1.55 0  0  0
0.3500000000000001  -1.32  1.2000000000000002 0  0  0
0.20000000000000018  -1.44  0.375 0  0  0
0.050000000000000266  -1.2000000000000002  1.55 0  0  0
0.050000000000000266  -1.44  1.25 0  0  0
0.40000000000000036  -1.44  1.375 0  0  0
0.15000000000000036  -1.32  0.9 0  0  0
0.30000000000000027  -1.5  0.65 0  0  0
0.40000000000000036  -1.5  0.7000000000000001 0  0  0
0.40000000000000036  -1.5  0.9500000000000001 0  0  0
0.10000000000000009  -1.5  1.05 0  0  0
0.30000000000000027  -1.32  1.425 0  0  0
0.30000000000000027  -1.32  1.175 0  0  0
0.050000000000000266  -1.32  0.9500000000000001 0  0  0
0.20000000000000018  -1.5  0.7000000000000001 0  0  0
0.20000000000000018  -1.32  0.925 0  0  0
0.30000000000000027  -1.62  0.9 0  0  0
0.20000000000000018  -1.32  0.675 0  0  0
0.30000000000000027  -1.26  1.35 0  0  0
0.4500000000000002  -1.32  0.65 0  0  0
0.4500000000000002  -1.32  0.4 0  0  0
0.15000000000000036  -1.56  0.8500000000000001 0  0  0
0.20000000000000018  -1.5  0.35000000000000003 0  0  0
0.15000000000000036  -1.56  1.1500000000000001 0  0  0
0.5  -1.5  1.4000000000000001 0  0  0
0.20000000000000018  -1.3800000000000001  0.45 0  0  0
0.20000000000000018  -1.62  0.9500000000000001 0  0  0
0.6000000000000001  -1.5  1.4500000000000002 0  0  0
0.20000000000000018  -1.26  1.4000000000000001 0  0  0
0.20000000000000018  -1.26  1.1500000000000001 0  0  0
0.3500000000000001  -1.44  1.1500000000000001 0  0  0
0.25  -1.32  0.65 0  0  0
0.3500000000000001  -1.32  0.9500000000000001 0  0  0
0.20000000000000018  -1.56  0.125 0  0  0
0.10000000000000009  -1.1400000000000001  1.4500000000000002 0  0  0
0.25  -1.56  0.45 0  0  0
0.25  -1.32  1.4500000000000002 0  0  0
0.25  -1.56  0.2 0  0  0
0.3500000000000001  -1.56  1.1500000000000001 0  0  0
0.15000000000000036  -1.44  1.0 0  0  0
0.10000000000000009  -1.3800000000000001  1.4000000000000001 0  0  0
0.40000000000000036  -1.44  0.375 0  0  0
0.40000000000000036  -1.2000000000000002  0.17500000000000002 0  0  0
0.3500000000000001  -1.2000000000000002  0.0 0  0  0
0.40000000000000036  -1.26  0.6000000000000001 0  0  0
0.30000000000000027  -1.32  0.42500000000000004 0  0  0
0.3500000000000001  -1.2000000000000002  0.5 0  0  0
0.20000000000000018  -1.1400000000000001  1.5 0  0  0
0.5500000000000003  -1.44  1.4000000000000001 0  0  0
0.10000000000000009  -1.44  0.7250000000000001 0  0  0
0.30000000000000027  -1.26  0.6000000000000001 0  0  0
0.30000000000000027  -1.26  0.8500000000000001 0  0  0
0.4500000000000002  -1.44  0.6000000000000001 0  0  0
0.4500000000000002  -1.44  0.8500000000000001 0  0  0
0.10000000000000009  -1.26  1.25 0  0  0
0.10000000000000009  -1.44  1.0250000000000001 0  0  0
0.25  -1.2000000000000002  1.55 0  0  0
0.10000000000000009  -1.44  1.2750000000000001 0  0  0
0.20000000000000018  -1.26  0.9 0  0  0
0.30000000000000027  -1.56  0.875 0  0  0
0.30000000000000027  -1.5  1.3 0  0  0
0.0  -1.26  1.0 0  0  0
0.4500000000000002  -1.32  0.35000000000000003 0  0  0
0.20000000000000018  -1.5  0.30000000000000004 0  0  0
0.20000000000000018  -1.5  0.8 0  0  0
0.30000000000000027  -1.3800000000000001  1.1500000000000001 0  0  0
0.050000000000000266  -1.32  1.1 0  0  0
0.050000000000000266  -1.32  1.6 0  0  0
0.20000000000000018  -1.3800000000000001  0.65 0  0  0
0.20000000000000018  -1.3800000000000001  0.4 0  0  0
0.3500000000000001  -1.56  0.9 0  0  0
0.3500000000000001  -1.2000000000000002  0.1 0  0  0
0.20000000000000018  -1.3800000000000001  1.4500000000000002 0  0  0
0.10000000000000009  -1.32  1.075 0  0  0
0.10000000000000009  -1.3800000000000001  0.65 0  0  0
0.40000000000000036  -1.26  0.05 0  0  0
0.25  -1.56  0.4 0  0  0
0.25  -1.56  0.15000000000000002 0  0  0
0.20000000000000018  -1.62  1.1 0  0  0
0.4500000000000002  -1.2000000000000002  0.0 0  0  0
0.4500000000000002  -1.2000000000000002  0.5 0  0  0
0.10000000000000009  -1.32  1.3250000000000002 0  0  0
0.3500000000000001  -1.32  1.35 0  0  0
0.10000000000000009  -1.2000000000000002  1.425 0  0  0
0.3500000000000001  -1.2000000000000002  0.55 0  0  0
